<?xml version="1.0" encoding="UTF-8" standalone="no"?>
<!-- Created with Inkscape (http://www.inkscape.org/) -->

<svg
   width="210mm"
   height="297mm"
   viewBox="0 0 210 297"
   version="1.1"
   id="svg1"
   xml:space="preserve"
   inkscape:version="1.4.2 (ebf0e940, 2025-05-08)"
   sodipodi:docname="france_visio.svg"
   inkscape:export-filename="france_visio.png"
   inkscape:export-xdpi="300"
   inkscape:export-ydpi="300"
   xmlns:inkscape="http://www.inkscape.org/namespaces/inkscape"
   xmlns:sodipodi="http://sodipodi.sourceforge.net/DTD/sodipodi-0.dtd"
   xmlns="http://www.w3.org/2000/svg"
   xmlns:svg="http://www.w3.org/2000/svg"><sodipodi:namedview
     id="namedview1"
     pagecolor="#ffffff"
     bordercolor="#000000"
     borderopacity="0.25"
     inkscape:showpageshadow="2"
     inkscape:pageopacity="0.0"
     inkscape:pagecheckerboard="0"
     inkscape:deskcolor="#d1d1d1"
     inkscape:document-units="mm"
     inkscape:zoom="1.6409822"
     inkscape:cx="352.53276"
     inkscape:cy="555.15531"
     inkscape:window-width="1680"
     inkscape:window-height="997"
     inkscape:window-x="0"
     inkscape:window-y="25"
     inkscape:window-maximized="0"
     inkscape:current-layer="layer1" /><defs
     id="defs1"><clipPath
       clipPathUnits="userSpaceOnUse"
       id="clipPath1"><rect
         style="fill:none;stroke:#000000;stroke-width:2.99789;stroke-linecap:round;stroke-linejoin:round;stroke-miterlimit:0"
         id="rect2"
         width="180.507"
         height="180.507"
         x="-10.003545"
         y="-4.8455477" /></clipPath></defs><g
     inkscape:label="Layer 1"
     inkscape:groupmode="layer"
     id="layer1"><rect
       style="fill:#ffffff;stroke:#000000;stroke-width:0.857488;stroke-linecap:round;stroke-linejoin:round;stroke-miterlimit:0;fill-opacity:1"
       id="rect3"
       width="50.662254"
       height="50.662254"
       x="63.343742"
       y="126.97074" /><g
       style="fill:none"
       id="g1"
       transform="matrix(0.26458333,0,0,0.26458333,67.442326,129.6041)"
       clip-path="url(#clipPath1)"><path
         d="M 5.61135,65.6951 C 5,68.832 5,72.6949 5,79.1656 v 15.5651 c 0,8.0283 0,12.0423 1.16756,15.6353 1.03306,3.18 2.72285,6.106 4.95984,8.591 2.5281,2.808 6.0044,4.815 12.9568,8.829 l 13.4798,7.782 c 6.1529,3.553 9.5832,5.533 12.8525,6.486 V 94.0288 c 0,-2.4007 -1.3113,-4.6096 -3.4189,-5.7592 z"
         fill="#c9191e"
         id="path1" /><path
         d="m 118.313,72.7489 v 25.0409 c 0,3.4622 1.505,6.7542 4.123,9.0192 l 18.023,15.597 c 1.054,0.892 2.149,1.622 3.285,2.19 1.176,0.527 2.312,0.791 3.407,0.791 2.352,0 4.238,-0.771 5.658,-2.312 1.46,-1.582 2.19,-3.63 2.19,-6.145 V 53.6577 c 0,-2.5146 -0.73,-4.5426 -2.19,-6.0839 -1.42,-1.5818 -3.306,-2.3727 -5.658,-2.3727 -1.095,0 -2.231,0.2636 -3.407,0.7909 -1.136,0.5273 -2.231,1.2574 -3.285,2.1902 l -18.009,15.535 c -2.627,2.2658 -4.137,5.5628 -4.137,9.0317 z"
         fill="#000091"
         id="path2" /><path
         d="m 11.6345,56.7522 c -0.5012,-0.2734 -1.0267,-0.4585 -1.5588,-0.5607 0.3357,-0.4287 0.6865,-0.8463 1.0519,-1.2521 2.5282,-2.8079 6.0044,-4.8149 12.9569,-8.8289 l 13.4798,-7.7826 c 6.9524,-4.014 10.4287,-6.021 14.1244,-6.8066 3.27,-0.6951 6.6496,-0.6951 9.9196,0 3.6957,0.7856 7.172,2.7926 14.1244,6.8066 l 13.3208,7.6908 c 0.0531,0.0305 0.1062,0.0611 0.1594,0.0918 6.9524,4.014 10.4287,6.0211 12.9571,8.8289 2.237,2.4844 3.926,5.4112 4.96,8.5907 1.167,3.5934 1.167,7.6074 1.167,15.6355 v 15.5651 c 0,8.0283 0,12.0423 -1.167,15.6353 -1.034,3.18 -2.723,6.107 -4.96,8.591 -2.5284,2.808 -6.0045,4.815 -12.9567,8.828 -0.0596,0.035 -0.1197,0.07 -0.1792,0.104 l -13.3014,7.679 c -6.9524,4.014 -10.4287,6.021 -14.1244,6.807 -0.1519,0.032 -0.304,0.063 -0.4564,0.092 V 94.0288 c 0,-6.3291 -3.4571,-12.1527 -9.0133,-15.1833 z"
         fill="#000091"
         id="path3" /><path
         d="m 193.72,45.7333 h 17.315 l 23.736,62.7227 23.736,-62.7227 h 17.314 L 245.435,126 h -21.328 z m 95.299,12.384 c -5.16,0 -9.518,-4.3573 -9.518,-9.5173 0,-5.16 4.358,-9.5173 9.518,-9.5173 5.16,0 9.402,4.3573 9.402,9.5173 0,5.16 -4.242,9.5173 -9.402,9.5173 z M 281.68,126 V 68.208 h 14.563 V 126 Z m 21.61,-8.371 9.632,-8.714 c 3.555,4.472 7.798,7.682 13.302,7.682 4.701,0 7.109,-2.752 7.109,-6.192 0,-10.09 -27.635,-6.306 -27.635,-26.6023 0,-10.2054 8.6,-17.888 20.64,-17.888 8.83,0 16.856,4.2426 20.984,9.8613 l -9.632,8.4853 c -2.981,-3.6693 -6.765,-6.6506 -11.237,-6.6506 -4.587,0 -6.765,2.5226 -6.765,5.504 0,9.8613 27.634,6.4213 27.634,26.3733 -0.229,12.155 -9.976,18.805 -20.869,18.805 -10.32,0 -17.659,-4.128 -23.163,-10.664 z m 60.204,-59.5117 c -5.16,0 -9.517,-4.3573 -9.517,-9.5173 0,-5.16 4.357,-9.5173 9.517,-9.5173 5.16,0 9.403,4.3573 9.403,9.5173 0,5.16 -4.243,9.5173 -9.403,9.5173 z M 356.155,126 V 68.208 h 14.563 V 126 Z m 54.96,-60.0853 c 18.805,0 31.648,13.8746 31.648,31.1893 0,17.315 -12.843,31.189 -31.648,31.189 -18.806,0 -31.648,-13.874 -31.648,-31.189 0,-17.3147 12.842,-31.1893 31.648,-31.1893 z m 0.229,48.6183 c 9.288,0 16.283,-7.453 16.283,-17.429 0,-10.0907 -6.995,-17.4293 -16.283,-17.4293 -9.632,0 -16.741,7.3386 -16.741,17.4293 0,10.091 7.109,17.429 16.741,17.429 z"
         fill="#000091"
         id="path4" /></g></g></svg>
