<?xml version="1.0" encoding="UTF-8" standalone="no"?>
<!-- Created with Inkscape (http://www.inkscape.org/) -->

<svg
   width="210mm"
   height="297mm"
   viewBox="0 0 210 297"
   version="1.1"
   id="svg1"
   inkscape:version="1.4.2 (ebf0e940, 2025-05-08)"
   xml:space="preserve"
   sodipodi:docname="france_fichiers.svg"
   inkscape:export-filename="france_fichiers.png"
   inkscape:export-xdpi="300"
   inkscape:export-ydpi="300"
   xmlns:inkscape="http://www.inkscape.org/namespaces/inkscape"
   xmlns:sodipodi="http://sodipodi.sourceforge.net/DTD/sodipodi-0.dtd"
   xmlns="http://www.w3.org/2000/svg"
   xmlns:svg="http://www.w3.org/2000/svg"><sodipodi:namedview
     id="namedview1"
     pagecolor="#ffffff"
     bordercolor="#000000"
     borderopacity="0.25"
     inkscape:showpageshadow="2"
     inkscape:pageopacity="0.0"
     inkscape:pagecheckerboard="0"
     inkscape:deskcolor="#d1d1d1"
     inkscape:document-units="mm"
     inkscape:zoom="1.8029968"
     inkscape:cx="453.41178"
     inkscape:cy="574.04427"
     inkscape:window-width="1680"
     inkscape:window-height="997"
     inkscape:window-x="0"
     inkscape:window-y="25"
     inkscape:window-maximized="0"
     inkscape:current-layer="layer1" /><defs
     id="defs1"><linearGradient
       id="paint0_linear_9317_507"
       x1="19"
       y1="27.3125"
       x2="19"
       y2="38"
       gradientUnits="userSpaceOnUse"><stop
         stop-color="#2845C1"
         id="stop6" /><stop
         offset="1"
         stop-color="#EEF1F4"
         id="stop7" /></linearGradient></defs><g
     inkscape:label="Layer 1"
     inkscape:groupmode="layer"
     id="layer1"><rect
       style="fill:#ffffff;stroke:#000000;stroke-width:0.708559;stroke-linecap:round;stroke-linejoin:round;stroke-miterlimit:0"
       id="rect1"
       width="49.291443"
       height="49.291443"
       x="126.11766"
       y="148.59978" /><g
       style="fill:none"
       id="g1"
       transform="matrix(0.97514495,0,0,0.97514495,132.0071,152.44538)"><path
         d="M 32.8659,11.5499 H 9.99841 c -2.59734,0 -5.20919,2.0438 -5.83372,4.565 L 2.375,23.3395 V 9.32047 C 2.375,7.81131 2.72105,6.67466 3.41314,5.91053 4.11411,5.13684 5.0857,4.75 6.32792,4.75 h 3.76658 c 0.4614,0 0.8607,0.03343 1.1979,0.10029 0.3371,0.06686 0.6477,0.18148 0.9316,0.34386 0.284,0.15283 0.5812,0.36774 0.8918,0.64474 l 0.7586,0.67339 c 0.3727,0.31521 0.7231,0.53967 1.0514,0.67339 0.3283,0.13373 0.7321,0.20059 1.2112,0.20059 h 12.3778 c 1.4286,0 2.5111,0.39639 3.2475,1.18918 0.6606,0.70264 1.0285,1.69416 1.1036,2.97446 z"
         fill="#c83f49"
         id="path1" /><path
         d="m 6.74091,32.0626 c -1.43742,0 -2.42245,-0.4114 -2.95508,-1.2343 C 3.25074,30.0154 3.17965,28.8159 3.57257,27.2298 L 6.32592,16.115 c 0.33759,-1.3628 1.7494,-2.4675 3.15337,-2.4675 H 34.9004 c 1.404,0 2.2684,1.1047 1.9309,2.4675 l -2.7534,11.1148 c -0.3929,1.5861 -1.045,2.7856 -1.9562,3.5985 -0.9136,0.8229 -2.0049,1.2343 -3.2737,1.2343 z"
         fill="#2845c1"
         id="path2" /><rect
         x="4.75"
         y="27.3125"
         width="28.5"
         height="10.6875"
         rx="5.34375"
         fill="#eef1f4"
         id="rect2" /><rect
         x="4.75"
         y="27.3125"
         width="28.5"
         height="10.6875"
         rx="5.34375"
         fill="url(#paint0_linear_9317_507)"
         fill-opacity="0.1"
         id="rect3"
         style="fill:url(#paint0_linear_9317_507)" /><path
         d="m 9.90665,35.3117 c -0.05924,0 -0.08885,0 -0.11148,-0.0115 C 9.77527,35.2901 9.75909,35.2739 9.74895,35.254 9.73743,35.2313 9.73743,35.2017 9.73743,35.1425 v -5.1671 c 0,-0.0593 0,-0.0889 0.01152,-0.1115 0.01014,-0.0199 0.02632,-0.0361 0.04622,-0.0462 0.02263,-0.0115 0.05224,-0.0115 0.11148,-0.0115 h 1.45095 c 1.1483,0 1.8483,0.5662 1.8483,1.4943 0,0.3439 -0.1203,0.6508 -0.3504,0.8887 -0.0814,0.0842 -0.1221,0.1263 -0.1289,0.1539 -0.0074,0.0298 -0.0058,0.0447 0.0078,0.0722 0.0125,0.0255 0.0596,0.0569 0.1538,0.1196 0.4095,0.2727 0.6323,0.6793 0.6323,1.1566 0,1.0067 -0.7786,1.6202 -2.0449,1.6202 z m 1.47455,-4.5775 h -0.3577 c -0.0592,0 -0.0889,0 -0.1115,0.0116 -0.0199,0.0101 -0.0361,0.0263 -0.0462,0.0462 -0.0115,0.0226 -0.0115,0.0522 -0.0115,0.1115 v 0.9042 c 0,0.0592 0,0.0888 0.0115,0.1115 0.0101,0.0199 0.0263,0.0361 0.0462,0.0462 0.0226,0.0115 0.0523,0.0115 0.1115,0.0115 h 0.3577 c 0.4247,0 0.6764,-0.2281 0.6764,-0.6292 0,-0.3854 -0.2517,-0.6135 -0.6764,-0.6135 z m 0.1573,2.1708 h -0.515 c -0.0592,0 -0.0889,0 -0.1115,0.0115 -0.0199,0.0102 -0.0361,0.0263 -0.0462,0.0462 -0.0115,0.0227 -0.0115,0.0523 -0.0115,0.1115 v 1.1402 c 0,0.0593 0,0.0889 0.0115,0.1115 0.0101,0.0199 0.0263,0.0361 0.0462,0.0462 0.0226,0.0115 0.0523,0.0115 0.1115,0.0115 h 0.515 c 0.5191,0 0.8337,-0.2752 0.8337,-0.7393 0,-0.4719 -0.3146,-0.7393 -0.8337,-0.7393 z"
         fill="#2845c1"
         id="path3" /><path
         d="m 14.7572,35.3117 c -0.0592,0 -0.0889,0 -0.1115,-0.0115 C 14.6258,35.2901 14.6096,35.2739 14.5995,35.254 14.588,35.2313 14.588,35.2017 14.588,35.1425 v -5.1671 c 0,-0.0593 0,-0.0889 0.0115,-0.1115 0.0101,-0.0199 0.0263,-0.0361 0.0462,-0.0462 0.0226,-0.0115 0.0523,-0.0115 0.1115,-0.0115 h 2.8705 c 0.0593,0 0.0889,0 0.1115,0.0115 0.0199,0.0101 0.0361,0.0263 0.0462,0.0462 0.0115,0.0226 0.0115,0.0522 0.0115,0.1115 v 0.5896 c 0,0.0592 0,0.0889 -0.0115,0.1115 -0.0101,0.0199 -0.0263,0.0361 -0.0462,0.0462 -0.0226,0.0115 -0.0522,0.0115 -0.1115,0.0115 H 15.874 c -0.0592,0 -0.0888,0 -0.1114,0.0116 -0.0199,0.0101 -0.0361,0.0263 -0.0463,0.0462 -0.0115,0.0226 -0.0115,0.0522 -0.0115,0.1115 v 0.9671 c 0,0.0593 0,0.0889 0.0115,0.1115 0.0102,0.0199 0.0264,0.0361 0.0463,0.0462 0.0226,0.0115 0.0522,0.0115 0.1114,0.0115 h 1.4391 c 0.0592,0 0.0889,0 0.1115,0.0116 0.0199,0.0101 0.0361,0.0263 0.0462,0.0462 0.0115,0.0226 0.0115,0.0522 0.0115,0.1115 v 0.5896 c 0,0.0592 0,0.0889 -0.0115,0.1115 -0.0101,0.0199 -0.0263,0.0361 -0.0462,0.0462 -0.0226,0.0115 -0.0523,0.0115 -0.1115,0.0115 H 15.874 c -0.0592,0 -0.0888,0 -0.1114,0.0115 -0.0199,0.0102 -0.0361,0.0264 -0.0463,0.0463 -0.0115,0.0226 -0.0115,0.0522 -0.0115,0.1114 v 1.0773 c 0,0.0593 0,0.0889 0.0115,0.1115 0.0102,0.0199 0.0264,0.0361 0.0463,0.0462 0.0226,0.0115 0.0522,0.0115 0.1114,0.0115 h 1.7537 c 0.0593,0 0.0889,0 0.1115,0.0116 0.0199,0.0101 0.0361,0.0263 0.0462,0.0462 0.0115,0.0226 0.0115,0.0522 0.0115,0.1115 v 0.5896 c 0,0.0592 0,0.0888 -0.0115,0.1115 -0.0101,0.0199 -0.0263,0.0361 -0.0462,0.0462 -0.0226,0.0115 -0.0522,0.0115 -0.1115,0.0115 z"
         fill="#2845c1"
         id="path4" /><path
         d="m 18.7342,30.8207 c -0.0592,0 -0.0888,0 -0.1114,-0.0115 C 18.6029,30.7991 18.5867,30.7829 18.5765,30.763 18.565,30.7404 18.565,30.7108 18.565,30.6515 v -0.6761 c 0,-0.0593 0,-0.0889 0.0115,-0.1115 0.0102,-0.0199 0.0264,-0.0361 0.0463,-0.0462 0.0226,-0.0115 0.0522,-0.0115 0.1114,-0.0115 h 4.1762 c 0.0592,0 0.0888,0 0.1114,0.0115 0.0199,0.0101 0.0361,0.0263 0.0463,0.0462 0.0115,0.0226 0.0115,0.0522 0.0115,0.1115 v 0.6761 c 0,0.0593 0,0.0889 -0.0115,0.1115 -0.0102,0.0199 -0.0264,0.0361 -0.0463,0.0462 -0.0226,0.0115 -0.0522,0.0115 -0.1114,0.0115 h -1.3605 c -0.0592,0 -0.0888,0 -0.1114,0.0116 -0.0199,0.0101 -0.0361,0.0263 -0.0463,0.0462 -0.0115,0.0226 -0.0115,0.0522 -0.0115,0.1115 v 4.1525 c 0,0.0592 0,0.0888 -0.0115,0.1115 -0.0102,0.0199 -0.0263,0.0361 -0.0462,0.0462 -0.0227,0.0115 -0.0523,0.0115 -0.1115,0.0115 h -0.7784 c -0.0592,0 -0.0889,0 -0.1115,-0.0115 -0.0199,-0.0101 -0.0361,-0.0263 -0.0462,-0.0462 -0.0115,-0.0227 -0.0115,-0.0523 -0.0115,-0.1115 V 30.99 c 0,-0.0593 0,-0.0889 -0.0116,-0.1115 -0.0101,-0.0199 -0.0263,-0.0361 -0.0462,-0.0462 -0.0226,-0.0116 -0.0522,-0.0116 -0.1114,-0.0116 z"
         fill="#2845c1"
         id="path5" /><path
         d="m 23.0048,35.3117 c -0.0823,0 -0.1235,0 -0.1499,-0.0173 -0.0231,-0.0151 -0.0393,-0.0386 -0.0453,-0.0656 -0.0068,-0.0308 0.0078,-0.0693 0.0369,-0.1462 l 1.9561,-5.1671 c 0.0149,-0.0395 0.0224,-0.0592 0.0353,-0.0737 0.0113,-0.0128 0.0256,-0.0227 0.0416,-0.0288 0.0182,-0.0068 0.0392,-0.0068 0.0814,-0.0068 H 26.19 c 0.0422,0 0.0633,0 0.0814,0.0068 0.016,0.0061 0.0303,0.016 0.0417,0.0288 0.0128,0.0145 0.0203,0.0342 0.0352,0.0737 l 1.9561,5.1671 c 0.0291,0.0769 0.0437,0.1154 0.0369,0.1462 -0.006,0.027 -0.0222,0.0505 -0.0453,0.0656 -0.0264,0.0173 -0.0676,0.0173 -0.1498,0.0173 h -0.8246 c -0.0426,0 -0.0638,0 -0.0821,-0.007 -0.0161,-0.0061 -0.0305,-0.0162 -0.0418,-0.0292 -0.0129,-0.0147 -0.0202,-0.0346 -0.0349,-0.0745 l -0.4455,-1.21 c -0.0147,-0.0399 -0.022,-0.0598 -0.0349,-0.0746 -0.0113,-0.013 -0.0257,-0.023 -0.0418,-0.0291 -0.0183,-0.007 -0.0395,-0.007 -0.0821,-0.007 h -1.9661 c -0.0426,0 -0.0638,0 -0.0821,0.007 -0.0161,0.0061 -0.0305,0.0161 -0.0418,0.0291 -0.0129,0.0148 -0.0202,0.0347 -0.0349,0.0746 l -0.4454,1.21 c -0.0147,0.0399 -0.0221,0.0598 -0.0349,0.0745 -0.0114,0.013 -0.0258,0.0231 -0.0419,0.0292 -0.0182,0.007 -0.0395,0.007 -0.082,0.007 z m 1.8986,-2.6103 c -0.0279,0.0764 -0.0419,0.1146 -0.0349,0.1452 0.0062,0.0267 0.0225,0.05 0.0455,0.0649 0.0263,0.0171 0.0669,0.0171 0.1483,0.0171 h 1.0263 c 0.0814,0 0.1221,0 0.1483,-0.0171 0.023,-0.0149 0.0393,-0.0382 0.0455,-0.0649 0.007,-0.0306 -0.0069,-0.0688 -0.0348,-0.1452 l -0.5132,-1.4058 c -0.049,-0.1343 -0.0735,-0.2015 -0.1093,-0.2205 -0.0311,-0.0165 -0.0682,-0.0165 -0.0993,0 -0.0358,0.019 -0.0603,0.0862 -0.1093,0.2205 z"
         fill="#2845c1"
         id="path6" /></g></g></svg>
