<?xml version="1.0" encoding="UTF-8" standalone="no"?>
<!-- Created with Inkscape (http://www.inkscape.org/) -->

<svg
   width="210mm"
   height="297mm"
   viewBox="0 0 210 297"
   version="1.1"
   id="svg1"
   xml:space="preserve"
   inkscape:version="1.4.2 (ebf0e940, 2025-05-08)"
   sodipodi:docname="france_grist.svg"
   inkscape:export-filename="france_grist.png"
   inkscape:export-xdpi="300"
   inkscape:export-ydpi="300"
   xmlns:inkscape="http://www.inkscape.org/namespaces/inkscape"
   xmlns:sodipodi="http://sodipodi.sourceforge.net/DTD/sodipodi-0.dtd"
   xmlns="http://www.w3.org/2000/svg"
   xmlns:svg="http://www.w3.org/2000/svg"><sodipodi:namedview
     id="namedview1"
     pagecolor="#ffffff"
     bordercolor="#000000"
     borderopacity="0.25"
     inkscape:showpageshadow="2"
     inkscape:pageopacity="0.0"
     inkscape:pagecheckerboard="0"
     inkscape:deskcolor="#d1d1d1"
     inkscape:document-units="mm"
     inkscape:zoom="1.7836386"
     inkscape:cx="438.14929"
     inkscape:cy="607.74642"
     inkscape:window-width="1680"
     inkscape:window-height="997"
     inkscape:window-x="0"
     inkscape:window-y="25"
     inkscape:window-maximized="0"
     inkscape:current-layer="layer1" /><defs
     id="defs1" /><g
     inkscape:label="Layer 1"
     inkscape:groupmode="layer"
     id="layer1"><rect
       style="fill:#ffffff;stroke:#000000;stroke-width:0.815495;stroke-linecap:round;stroke-linejoin:round;stroke-miterlimit:0"
       id="rect1"
       width="49.184505"
       height="49.184505"
       x="101.12501"
       y="130.34781" /><g
       style="fill:none"
       id="g1"
       transform="matrix(1.1025667,0,0,1.1025667,104.53032,133.93384)"><path
         fill-rule="evenodd"
         clip-rule="evenodd"
         d="m 4.61099,15.3805 c 0,-0.3191 0.25868,-0.5778 0.57778,-0.5778 H 9.1176 c 2.0794,0 3.7677,1.8572 3.7677,4.1445 v 3.552 c 0,0.3191 -0.2587,0.5778 -0.5778,0.5778 H 8.3433 c -2.0601,0 -3.73231,-1.8396 -3.73231,-4.1056 z"
         fill="#c83f49"
         id="path1" /><path
         fill-rule="evenodd"
         clip-rule="evenodd"
         d="m 4.61099,25.4934 c 0,-0.3191 0.25868,-0.5778 0.57778,-0.5778 H 9.1176 c 2.0794,0 3.7677,1.8571 3.7677,4.1444 v 3.5521 c 0,0.3191 -0.2587,0.5778 -0.5778,0.5778 H 8.3433 c -2.0601,0 -3.73231,-1.8396 -3.73231,-4.1054 z"
         fill="#c83f49"
         id="path2" /><path
         fill-rule="evenodd"
         clip-rule="evenodd"
         d="m 34.0309,5.2676 c 0,-0.3191 -0.2587,-0.57778 -0.5778,-0.57778 h -3.9288 c -2.0794,0 -3.7677,1.85688 -3.7677,4.14443 v 3.55205 c 0,0.3191 0.2587,0.5778 0.5778,0.5778 h 3.9644 c 2.0599,0 3.7321,-1.8398 3.7321,-4.10562 z"
         fill="#2845c1"
         id="path3" /><path
         fill-rule="evenodd"
         clip-rule="evenodd"
         d="m 15.6435,5.2676 c 0,-0.3191 0.2587,-0.57778 0.5778,-0.57778 h 3.9288 c 2.0794,0 3.7677,1.85688 3.7677,4.14443 v 3.55205 c 0,0.3191 -0.2587,0.5778 -0.5778,0.5778 h -3.9642 c -2.0601,0 -3.7323,-1.8398 -3.7323,-4.10562 z"
         fill="#2845c1"
         id="path4" /><path
         fill-rule="evenodd"
         clip-rule="evenodd"
         d="m 15.6435,15.3804 c 0,-0.3191 0.2587,-0.5777 0.5778,-0.5777 h 3.9288 c 2.0794,0 3.7677,1.8571 3.7677,4.1444 v 3.5521 c 0,0.3191 -0.2587,0.5777 -0.5778,0.5777 h -3.9642 c -2.0601,0 -3.7323,-1.8395 -3.7323,-4.1056 z"
         fill="#2845c1"
         id="path5" /><path
         fill-rule="evenodd"
         clip-rule="evenodd"
         d="m 34.0309,15.3804 c 0,-0.3191 -0.2587,-0.5777 -0.5778,-0.5777 h -3.9288 c -2.0794,0 -3.7677,1.8571 -3.7677,4.1444 v 3.5521 c 0,0.3191 0.2587,0.5777 0.5778,0.5777 h 3.9644 c 2.0599,0 3.7321,-1.8395 3.7321,-4.1056 z"
         fill="#2845c1"
         id="path6" /><path
         fill-rule="evenodd"
         clip-rule="evenodd"
         d="m 15.6435,25.4933 c 0,-0.3191 0.2587,-0.5778 0.5778,-0.5778 h 3.9288 c 2.0794,0 3.7677,1.8572 3.7677,4.1445 v 3.552 c 0,0.3191 -0.2587,0.5778 -0.5778,0.5778 h -3.9642 c -2.0601,0 -3.7323,-1.8396 -3.7323,-4.1054 z"
         fill="#2845c1"
         id="path7" /><path
         fill-rule="evenodd"
         clip-rule="evenodd"
         d="m 34.0309,25.4933 c 0,-0.3191 -0.2587,-0.5778 -0.5778,-0.5778 h -3.9288 c -2.0794,0 -3.7677,1.8572 -3.7677,4.1445 v 3.552 c 0,0.3191 0.2587,0.5778 0.5778,0.5778 h 3.9644 c 2.0599,0 3.7321,-1.8396 3.7321,-4.1054 z"
         fill="#2845c1"
         id="path8" /></g></g></svg>
