<?xml version="1.0" encoding="UTF-8" standalone="no"?>
<!-- Created with Inkscape (http://www.inkscape.org/) -->

<svg
   width="210mm"
   height="297mm"
   viewBox="0 0 210 297"
   version="1.1"
   id="svg1"
   xml:space="preserve"
   inkscape:version="1.4.2 (ebf0e940, 2025-05-08)"
   sodipodi:docname="france_docs.svg"
   inkscape:export-filename="france_docs.png"
   inkscape:export-xdpi="300"
   inkscape:export-ydpi="300"
   xmlns:inkscape="http://www.inkscape.org/namespaces/inkscape"
   xmlns:sodipodi="http://sodipodi.sourceforge.net/DTD/sodipodi-0.dtd"
   xmlns="http://www.w3.org/2000/svg"
   xmlns:svg="http://www.w3.org/2000/svg"><sodipodi:namedview
     id="namedview1"
     pagecolor="#ffffff"
     bordercolor="#000000"
     borderopacity="0.25"
     inkscape:showpageshadow="2"
     inkscape:pageopacity="0.0"
     inkscape:pagecheckerboard="0"
     inkscape:deskcolor="#d1d1d1"
     inkscape:document-units="mm"
     inkscape:zoom="1.2618149"
     inkscape:cx="404.57597"
     inkscape:cy="567.43662"
     inkscape:window-width="1680"
     inkscape:window-height="997"
     inkscape:window-x="0"
     inkscape:window-y="25"
     inkscape:window-maximized="0"
     inkscape:current-layer="layer1" /><defs
     id="defs1" /><g
     inkscape:label="Layer 1"
     inkscape:groupmode="layer"
     id="layer1"><rect
       style="fill:#ffffff;stroke:#000000;stroke-width:0.603771;stroke-linecap:round;stroke-linejoin:round;stroke-miterlimit:0"
       id="rect1"
       width="61.669674"
       height="61.669666"
       x="91.283516"
       y="149.70732" /><g
       style="fill:none"
       id="g1"
       transform="matrix(1.4547889,0,0,1.4547889,94.887527,153.19834)"><path
         d="m 25.6862,34.237 c 1.3868,-0.3888 2.7148,-1.0984 3.5862,-2.3523 0.8603,-1.2278 1.1025,-2.7854 1.1025,-4.2842 V 5.64181 c 0,-0.3888 -0.0211,-0.77832 -0.068,-1.16317 0.6887,0.2709 1.2196,0.71855 1.5925,1.34294 0.44,0.70996 0.6599,1.6449 0.6599,2.80483 V 30.9301 c 0,1.5699 -0.3849,2.7448 -1.1549,3.5248 -0.7699,0.7799 -1.9299,1.1699 -3.4798,1.1699 h -8.4248 c 0.1996,-0.0349 0.3996,-0.0709 0.6001,-0.1079 1.7581,-0.3142 3.616,-0.7405 5.5721,-1.2759 z"
         fill="#c83f49"
         id="path1" /><path
         fill-rule="evenodd"
         clip-rule="evenodd"
         d="M 5.44116,30.4653 V 8.13165 C 5.44116,6.77173 5.80614,5.74179 6.5361,5.04183 7.27605,4.34187 8.25599,3.9569 9.47592,3.8869 11.2758,3.77691 12.9807,3.62692 14.5906,3.43693 16.2005,3.23694 17.7404,3.00695 19.2103,2.74697 20.6902,2.48698 22.1302,2.197 23.5301,1.87702 24.97,1.53704 26.0749,1.70703 26.8449,2.38699 c 0.7699,0.67996 1.1549,1.76489 1.1549,3.25481 v 21.9587 c 0,1.3099 -0.225,2.2848 -0.6749,2.9248 -0.45,0.65 -1.21,1.1249 -2.2799,1.4249 -1.8999,0.52 -3.6898,0.93 -5.3697,1.2299 -1.6799,0.31 -3.3198,0.545 -4.9197,0.705 -1.5999,0.16 -3.2398,0.285 -4.9197,0.375 -1.38992,0.08 -2.46985,-0.21 -3.23981,-0.87 C 5.82614,32.7402 5.44116,31.7652 5.44116,30.4653 Z M 10.9353,12.1866 c 2.2026,-0.1402 4.221,-0.3555 6.0549,-0.6461 0.445,-0.0725 0.8893,-0.1481 1.3319,-0.2265 0.4632,-0.082 0.7981,-0.4857 0.7981,-0.955 0,-0.6078 -0.55,-1.06552 -1.1474,-0.96363 -0.3431,0.05853 -0.6881,0.11542 -1.0349,0.17067 -1.8155,0.2893 -3.8217,0.50396 -6.0186,0.64376 -0.329,0.0212 -0.5907,0.1237 -0.759,0.328 -0.1591,0.1932 -0.23702,0.4255 -0.23702,0.6904 0,0.2693 0.09082,0.5037 0.27222,0.6964 l 0.0025,0.0026 c 0.1966,0.1965 0.4464,0.2816 0.7373,0.2594 z m -8e-4,4.9799 c 2.2029,-0.1402 4.2215,-0.3555 6.0557,-0.6462 1.8421,-0.3003 3.6647,-0.6508 5.4668,-1.0513 0.3657,-0.0812 0.6397,-0.2092 0.7767,-0.408 0.1347,-0.1911 0.2013,-0.4101 0.2013,-0.6528 0,-0.2738 -0.1043,-0.5097 -0.3072,-0.7013 -0.2185,-0.2064 -0.524,-0.2544 -0.8855,-0.18 l -0.0023,5e-4 c -1.7172,0.3894 -3.4846,0.7289 -5.3021,1.0185 -1.8155,0.2893 -3.8217,0.5039 -6.0186,0.6437 -0.329,0.0212 -0.5907,0.1237 -0.759,0.328 -0.1583,0.1923 -0.23702,0.4193 -0.23702,0.6755 0,0.2778 0.08982,0.5178 0.27212,0.7115 l 0.0052,0.0049 c 0.196,0.1844 0.4431,0.2683 0.7309,0.2572 z m 6e-4,4.9797 c 2.2027,-0.1502 4.2211,-0.3705 6.055,-0.6611 1.8423,-0.2904 3.6646,-0.6358 5.4669,-1.0364 0.3666,-0.0814 0.6408,-0.2148 0.7776,-0.4243 0.1334,-0.1897 0.2004,-0.403 0.2004,-0.6365 0,-0.2738 -0.1043,-0.5097 -0.3072,-0.7013 -0.2185,-0.2064 -0.524,-0.2544 -0.8854,-0.18 l -0.0017,4e-4 c -1.7175,0.3794 -3.4851,0.714 -5.3028,1.0036 -1.8157,0.2893 -3.822,0.5089 -6.0189,0.6587 -0.3288,0.0213 -0.5905,0.1238 -0.7587,0.328 -0.1583,0.1923 -0.23702,0.4193 -0.23702,0.6755 0,0.2778 0.08982,0.5178 0.27212,0.7115 l 0.0052,0.0049 c 0.196,0.1844 0.4431,0.2683 0.7309,0.2572 z m 6.0551,4.284 c -1.8339,0.2907 -3.8523,0.506 -6.0549,0.6462 -0.2909,0.0222 -0.5407,-0.0629 -0.7373,-0.2595 l -0.0025,-0.0026 c -0.1813,-0.1927 -0.27222,-0.427 -0.27222,-0.6963 0,-0.2649 0.07792,-0.4973 0.23702,-0.6905 0.1683,-0.2043 0.4301,-0.3068 0.7591,-0.328 2.1969,-0.1398 4.203,-0.3544 6.0185,-0.6437 0.3468,-0.0553 0.6918,-0.1122 1.0349,-0.1707 0.5974,-0.1019 1.1474,0.3558 1.1474,0.9636 0,0.4694 -0.3349,0.873 -0.7981,0.955 -0.4426,0.0784 -0.8869,0.154 -1.3319,0.2265 z"
         fill="#2845c1"
         id="path2" /></g></g></svg>
