<?xml version="1.0" encoding="UTF-8" standalone="no"?>
<!-- Created with Inkscape (http://www.inkscape.org/) -->

<svg
   width="210mm"
   height="297mm"
   viewBox="0 0 210 297"
   version="1.1"
   id="svg1"
   xml:space="preserve"
   inkscape:version="1.4.2 (ebf0e940, 2025-05-08)"
   sodipodi:docname="france_tchap.svg"
   inkscape:export-filename="france_tchap.png"
   inkscape:export-xdpi="300"
   inkscape:export-ydpi="300"
   xmlns:inkscape="http://www.inkscape.org/namespaces/inkscape"
   xmlns:sodipodi="http://sodipodi.sourceforge.net/DTD/sodipodi-0.dtd"
   xmlns="http://www.w3.org/2000/svg"
   xmlns:svg="http://www.w3.org/2000/svg"><sodipodi:namedview
     id="namedview1"
     pagecolor="#ffffff"
     bordercolor="#000000"
     borderopacity="0.25"
     inkscape:showpageshadow="2"
     inkscape:pageopacity="0.0"
     inkscape:pagecheckerboard="0"
     inkscape:deskcolor="#d1d1d1"
     inkscape:document-units="mm"
     inkscape:zoom="0.94853395"
     inkscape:cx="318.9132"
     inkscape:cy="458.60246"
     inkscape:window-width="1680"
     inkscape:window-height="997"
     inkscape:window-x="0"
     inkscape:window-y="25"
     inkscape:window-maximized="0"
     inkscape:current-layer="layer1" /><defs
     id="defs1" /><g
     inkscape:label="Layer 1"
     inkscape:groupmode="layer"
     id="layer1"><rect
       style="fill:#ffffff;stroke:#000000;stroke-width:0.84385;stroke-linecap:round;stroke-linejoin:round;stroke-miterlimit:0"
       id="rect1"
       width="52.782436"
       height="54.156151"
       x="92.021866"
       y="109.3161" /><g
       style="fill:none"
       id="g1"
       transform="matrix(1.1149256,0,0,1.1149256,97.369461,116.21704)"><path
         fill-rule="evenodd"
         clip-rule="evenodd"
         d="m 34.2047,9.69734 c 0.2261,0.69676 0.2261,1.47486 0.2261,3.03106 v 9.3153 c 0,1.5562 0,2.3343 -0.2261,3.031 -0.2001,0.6164 -0.5274,1.184 -0.9607,1.6659 -0.4897,0.5447 -1.1632,0.9344 -2.51,1.7138 l -9.8954,5.7265 -5.1195,2.9465 c -0.7591,0.4369 -1.1387,0.6554 -1.4501,0.6223 -0.2716,-0.0288 -0.5183,-0.1714 -0.6787,-0.3925 -0.184,-0.2534 -0.184,-0.6913 -0.184,-1.5672 v -2.6391 c 0,-0.4088 0,-0.6131 -0.0593,-0.7962 -0.0525,-0.162 -0.1384,-0.3112 -0.2521,-0.438 -0.1285,-0.1432 -0.3053,-0.2459 -0.6587,-0.4512 L 7.25575,28.4564 C 5.91252,27.6762 5.24088,27.2861 4.75252,26.7417 4.32041,26.26 3.99408,25.6931 3.7946,25.0775 3.56915,24.3818 3.56915,23.6051 3.56915,22.0517 v -9.3233 c 0,-1.5562 0,-2.3343 0.22616,-3.03106 C 3.99541,9.08087 4.32273,8.5133 4.75608,8.03135 5.24586,7.48665 5.91933,7.09694 7.26629,6.31752 L 15.2903,1.67439 c 1.3513,-0.78193 2.027,-1.172895 2.7455,-1.325905 0.6357,-0.135382 1.2927,-0.135382 1.9284,0 0.7185,0.15301 1.3942,0.543975 2.7455,1.325905 l 8.024,4.64313 c 1.347,0.77942 2.0204,1.16913 2.5102,1.71383 0.4334,0.48195 0.7607,1.04952 0.9608,1.66599 z m -5.5104,2.58286 c 0.0786,0.242 0.0786,0.5121 0.0786,1.0525 v 8.3326 c 0,0.5443 0,0.8164 -0.0795,1.0597 -0.0704,0.2152 -0.1854,0.4132 -0.3376,0.5809 -0.172,0.1896 -0.4084,0.3243 -0.8812,0.5938 l -7.2011,4.1043 c -0.4642,0.2646 -0.6964,0.3969 -0.9428,0.4487 -0.2181,0.0459 -0.4433,0.0459 -0.6614,0 -0.2464,-0.0518 -0.4786,-0.1841 -0.9428,-0.4486 L 10.5254,23.8997 C 10.0526,23.6302 9.8162,23.4955 9.64419,23.3059 9.49201,23.1382 9.37698,22.9402 9.30664,22.725 9.22713,22.4817 9.22713,22.2096 9.22713,21.6653 v -8.3326 c 0,-0.5404 0,-0.8105 0.07853,-1.0525 0.06948,-0.214 0.18313,-0.4111 0.3336,-0.5784 0.17006,-0.1892 0.40394,-0.3245 0.87164,-0.5951 l 7.201,-4.16692 c 0.4692,-0.27151 0.7038,-0.40726 0.9533,-0.46039 0.2207,-0.047 0.4489,-0.047 0.6696,0 0.2495,0.05313 0.4841,0.18888 0.9533,0.46039 l 7.201,4.16692 c 0.4677,0.2706 0.7016,0.4059 0.8716,0.5951 0.1505,0.1673 0.2642,0.3644 0.3336,0.5784 z"
         fill="#2845c1"
         id="path1" /><path
         d="m 13.4484,16.9503 c 0,0.0705 0,0.1058 0.0137,0.1327 0.0121,0.0237 0.0313,0.043 0.055,0.055 0.0269,0.0138 0.0622,0.0138 0.1327,0.0138 h 1.2813 c 0.0705,0 0.1058,0 0.1327,-0.0138 0.0237,-0.012 0.0429,-0.0313 0.055,-0.055 0.0137,-0.0269 0.0137,-0.0622 0.0137,-0.1327 v -2.0058 c 0,-0.0705 0,-0.1058 0.0137,-0.1327 0.0121,-0.0237 0.0314,-0.0429 0.0551,-0.055 0.0269,-0.0137 0.0621,-0.0137 0.1326,-0.0137 h 2.665 c 0.0705,0 0.1058,0 0.1327,0.0137 0.0237,0.0121 0.0429,0.0313 0.055,0.055 0.0137,0.0269 0.0137,0.0622 0.0137,0.1327 v 8.5553 c 0,0.0705 0,0.1057 0.0138,0.1327 0.012,0.0236 0.0313,0.0429 0.055,0.055 0.0269,0.0137 0.0621,0.0137 0.1326,0.0137 h 1.2814 c 0.0705,0 0.1057,0 0.1327,-0.0137 0.0236,-0.0121 0.0429,-0.0314 0.055,-0.055 0.0137,-0.027 0.0137,-0.0622 0.0137,-0.1327 v -8.5553 c 0,-0.0705 0,-0.1058 0.0137,-0.1327 0.0121,-0.0237 0.0313,-0.0429 0.055,-0.055 0.027,-0.0137 0.0622,-0.0137 0.1327,-0.0137 h 4.7516 c 0.0705,0 0.1058,0 0.1327,-0.0137 0.0237,-0.0121 0.043,-0.0314 0.055,-0.0551 0.0138,-0.0269 0.0138,-0.0621 0.0138,-0.1326 v -1.2843 c 0,-0.0705 0,-0.1057 -0.0138,-0.1326 -0.012,-0.0237 -0.0313,-0.043 -0.055,-0.055 C 24.9433,13.056 24.908,13.056 24.8375,13.056 H 13.6498 c -0.0705,0 -0.1058,0 -0.1327,0.0138 -0.0237,0.012 -0.0429,0.0313 -0.055,0.055 -0.0137,0.0269 -0.0137,0.0621 -0.0137,0.1326 z"
         fill="#c83f49"
         id="path2" /></g></g></svg>
