<?xml version="1.0" encoding="UTF-8" standalone="no"?>
<svg
   height="500"
   overflow="scroll"
   width="1200"
   version="1.1"
   id="svg5"
   sodipodi:docname="latex_math.svg"
   inkscape:version="1.4.3 (0d15f75042, 2025-12-25)"
   xmlns:inkscape="http://www.inkscape.org/namespaces/inkscape"
   xmlns:sodipodi="http://sodipodi.sourceforge.net/DTD/sodipodi-0.dtd"
   xmlns="http://www.w3.org/2000/svg"
   xmlns:svg="http://www.w3.org/2000/svg">
  <defs
     id="defs5">
    <rect
       x="153.38346"
       y="251.05"
       width="708.09154"
       height="212.96719"
       id="rect5" />
  </defs>
  <sodipodi:namedview
     id="namedview5"
     pagecolor="#ffffff"
     bordercolor="#000000"
     borderopacity="0.25"
     inkscape:showpageshadow="2"
     inkscape:pageopacity="0.0"
     inkscape:pagecheckerboard="0"
     inkscape:deskcolor="#d1d1d1"
     inkscape:zoom="0.77583333"
     inkscape:cx="599.35553"
     inkscape:cy="677.98067"
     inkscape:window-width="1078"
     inkscape:window-height="1043"
     inkscape:window-x="0"
     inkscape:window-y="0"
     inkscape:window-maximized="0"
     inkscape:current-layer="svg5" />
  <text
     xml:space="preserve"
     id="text5"
     style="fill:#000000;text-orientation:auto;stroke-width:15.11811024;-inkscape-font-specification:'Sans, Bold';font-family:Sans;font-size:18.66666667px;font-weight:bold;fill-opacity:0.73817146;writing-mode:lr-tb;direction:ltr;white-space:pre;shape-inside:url(#rect5)" />
  <g
     id="g6"
     inkscape:export-filename="latex_math.png"
     inkscape:export-xdpi="300"
     inkscape:export-ydpi="300">
    <rect
       style="fill:#c6daff;fill-opacity:1;stroke-width:4.96476"
       id="rect6"
       width="415.87802"
       height="415.87802"
       x="414.25583"
       y="46.233082" />
    <path
       d="m 529.98554,226.21646 h -3.34038 c -1.33616,13.62877 -3.20677,30.19708 -26.72308,30.19708 h -10.82284 c -6.27992,0 -6.54715,-0.93531 -6.54715,-5.34462 v -70.94976 c 0,-4.54292 0,-6.41354 12.55984,-6.41354 h 4.40931 v -4.00846 c -4.81016,0.40085 -16.83554,0.40085 -22.31377,0.40085 -5.211,0 -15.633,0 -20.17592,-0.40085 v 4.00846 h 3.07315 c 10.28839,0 10.55562,1.46977 10.55562,6.27992 v 70.14807 c 0,4.81016 -0.26723,6.27993 -10.55562,6.27993 h -3.07315 v 4.14207 h 69.34638 z"
       id="path1"
       style="stroke-width:13.3615" />
    <path
       d="m 527.71408,169.56355 c -0.53446,-1.60339 -0.80169,-2.13785 -2.53869,-2.13785 -1.737,0 -2.13785,0.53446 -2.67231,2.13785 L 500.991,224.07862 c -0.9353,2.27146 -2.53869,6.41353 -10.82284,6.41353 v 3.34039 h 20.71038 v -3.34039 c -4.14207,0 -6.68077,-1.87061 -6.68077,-4.54292 0,-0.66807 0.13362,-0.93531 0.40085,-1.87061 0,0 4.54292,-11.49092 4.54292,-11.49092 h 26.45585 l 5.34461,13.62876 c 0.26723,0.53446 0.53446,1.20254 0.53446,1.60339 0,2.6723 -5.07738,2.6723 -7.61607,2.6723 v 3.34039 h 26.32222 v -3.34039 H 558.312 c -6.27992,0 -6.948,-0.9353 -7.88331,-3.60761 0,0 -22.71461,-57.32099 -22.71461,-57.32099 z m -5.34462,9.48669 11.89177,30.19707 H 510.4777 Z"
       id="path2"
       style="stroke-width:13.3615" />
    <path
       d="m 634.74,170.49886 h -81.37176 c 0,0 -2.40508,29.92984 -2.40508,29.92984 h 3.20677 c 1.87061,-21.51207 3.87484,-25.92138 24.05077,-25.92138 2.40507,0 5.87907,0 7.21523,0.26723 2.80592,0.53446 2.80592,2.00423 2.80592,5.07739 v 70.14807 c 0,4.54292 0,6.41353 -14.02962,6.41353 h -5.34461 v 4.14208 c 5.47823,-0.40085 18.97338,-0.40085 25.11969,-0.40085 6.14631,0 19.90869,0 25.38692,0.40085 v -4.14208 h -5.34462 C 600,256.41354 600,254.54293 600,250.00001 v -70.14807 c 0,-2.67231 0,-4.54293 2.40508,-5.07739 1.46977,-0.26723 5.07738,-0.26723 7.61607,-0.26723 20.04231,0 22.04654,4.40931 23.91715,25.92138 h 3.34039 c 0,0 -2.53869,-29.92984 -2.53869,-29.92984 z"
       id="path3"
       style="stroke-width:13.3615" />
    <path
       d="m 706.35784,256.27993 h -3.34039 c -3.34038,20.44315 -6.41353,30.19707 -29.26176,30.19707 h -17.63723 c -6.27992,0 -6.54715,-0.93531 -6.54715,-5.34462 V 245.5907 h 11.89176 c 12.96069,0 14.43046,4.27569 14.43046,15.63299 h 3.34039 v -35.27445 h -3.34039 c 0,11.3573 -1.46977,15.49938 -14.43046,15.49938 h -11.89176 v -31.93407 c 0,-4.40931 0.26723,-5.34462 6.54715,-5.34462 h 17.10277 c 20.44315,0 23.91715,7.34885 26.05499,25.92138 h 3.34039 l -3.74123,-29.92984 h -74.82461 v 4.00846 h 3.07315 c 10.28839,0 10.55562,1.46977 10.55562,6.27992 v 69.74723 c 0,4.81015 -0.26723,6.27992 -10.55562,6.27992 h -3.07315 v 4.14208 h 76.69522 z"
       id="path4"
       style="stroke-width:13.3615" />
    <path
       d="m 746.57606,209.11369 18.3053,-26.72307 c 2.80593,-4.27569 7.34885,-8.55138 19.24062,-8.685 v -4.00846 h -31.80046 v 4.00846 c 5.34461,0.13362 8.28415,3.07315 8.28415,6.14631 0,1.33615 -0.26723,1.60338 -1.20254,3.07315 0,0 -15.23215,22.44738 -15.23215,22.44738 l -17.10276,-25.65415 c -0.26724,-0.40084 -0.93531,-1.46977 -0.93531,-2.00423 0,-1.60338 2.93954,-3.87484 8.55138,-4.00846 v -4.00846 c -4.54292,0.40085 -14.29684,0.40085 -19.37423,0.40085 -4.14207,0 -12.42623,-0.13362 -17.37,-0.40085 v 4.00846 h 2.5387 c 7.34884,0 9.88753,0.93531 12.42623,4.67654 0,0 24.45161,37.01146 24.45161,37.01146 l -21.77931,32.2013 c -1.87061,2.67231 -5.87907,8.81862 -19.24061,8.81862 v 4.14207 h 31.80046 v -4.14207 c -6.14631,-0.13362 -8.41777,-3.74124 -8.41777,-6.14631 0,-1.20254 0.40085,-1.737 1.33615,-3.20677 l 18.83977,-27.92561 21.11123,31.80045 c 0.26723,0.53447 0.66808,1.06893 0.66808,1.46977 0,1.60339 -2.93954,3.87485 -8.685,4.00847 v 4.14207 c 4.67653,-0.40084 14.43046,-0.40084 19.37423,-0.40084 5.61184,0 11.75815,0.13361 17.36999,0.40084 v -4.14207 h -2.53869 c -6.948,0 -9.75392,-0.66808 -12.55984,-4.81016 0,0 -28.05923,-42.48969 -28.05923,-42.48969 z"
       id="path5"
       style="stroke-width:13.3615" />
    <text
       xml:space="preserve"
       style="font-style:normal;font-variant:normal;font-weight:bold;font-stretch:normal;font-size:118.769px;font-family:Sans;-inkscape-font-specification:'Sans, Bold';font-variant-ligatures:normal;font-variant-caps:normal;font-variant-numeric:normal;font-variant-east-asian:normal;writing-mode:lr-tb;direction:ltr;fill:#36a03d;fill-opacity:1;stroke-width:4.48891"
       x="461.61139"
       y="350.82025"
       id="text6"><tspan
         sodipodi:role="line"
         id="tspan6"
         x="461.61139"
         y="350.82025"
         style="stroke-width:4.48891">Math</tspan></text>
  </g>
</svg>
