<?xml version="1.0" encoding="UTF-8" standalone="no"?>
<svg
   id="Layer_1"
   data-name="Layer 1"
   viewBox="0 0 460.57 104.67"
   version="1.1"
   sodipodi:docname="notebook.svg"
   inkscape:export-filename="jupyterbook.png"
   inkscape:export-xdpi="300"
   inkscape:export-ydpi="300"
   xml:space="preserve"
   inkscape:version="1.3 (0e150ed6c4, 2023-07-21)"
   xmlns:inkscape="http://www.inkscape.org/namespaces/inkscape"
   xmlns:sodipodi="http://sodipodi.sourceforge.net/DTD/sodipodi-0.dtd"
   xmlns="http://www.w3.org/2000/svg"
   xmlns:svg="http://www.w3.org/2000/svg"><sodipodi:namedview
     id="namedview4"
     pagecolor="#ffffff"
     bordercolor="#000000"
     borderopacity="0.25"
     inkscape:showpageshadow="2"
     inkscape:pageopacity="0.0"
     inkscape:pagecheckerboard="0"
     inkscape:deskcolor="#d1d1d1"
     inkscape:zoom="1.7869162"
     inkscape:cx="195.86817"
     inkscape:cy="186.91419"
     inkscape:window-width="1691"
     inkscape:window-height="1366"
     inkscape:window-x="0"
     inkscape:window-y="0"
     inkscape:window-maximized="1"
     inkscape:current-layer="Layer_1" /><defs
     id="defs1"><rect
       x="-74.554508"
       y="143.33571"
       width="24.474777"
       height="23.248415"
       id="rect6" /><rect
       x="-171.80218"
       y="91.749809"
       width="321.71346"
       height="133.29747"
       id="rect5" /><style
       id="style1">.cls-1{fill:#616161;}.cls-2{fill:#f37726;}</style></defs><title
     id="title1">logo-wide</title><text
     xml:space="preserve"
     id="text6"
     style="white-space:pre;shape-inside:url(#rect6);display:inline;fill:#ffffff;fill-opacity:1;stroke:#000000;stroke-width:2;stroke-dasharray:none" /><g
     id="g2"
     inkscape:export-filename="./notebook.png"
     inkscape:export-xdpi="300"
     inkscape:export-ydpi="300"><g
       id="g1"
       transform="translate(184.97937,365.56503)"><rect
         style="fill:#ffffff;fill-opacity:1;stroke:#9e00ff;stroke-width:2;stroke-dasharray:none;stroke-opacity:1"
         id="rect4"
         width="293.67319"
         height="361.35706"
         x="-149.47937"
         y="-364.56503"
         inkscape:export-filename="./notebook.png"
         inkscape:export-xdpi="300"
         inkscape:export-ydpi="300" /><g
         id="g5"
         transform="translate(-0.46999616,17.621577)"><path
           class="cls-1"
           d="m -56.05938,-85.06312 a 14.43,14.43 0 0 1 -6.71,-1.47 12.62,12.62 0 0 1 -4.73,-4.36 l -0.66,5.07 h -6.2 v -51.22 l -5.94,-1 v -4.64 h 13.13 v 22.08 a 12.27,12.27 0 0 1 4.61,-4 14,14 0 0 1 6.42,-1.39 13.29,13.29 0 0 1 8.33,2.63 16.56,16.56 0 0 1 5.29,7.42 30.78,30.78 0 0 1 1.85,11.12 v 0.75 a 25,25 0 0 1 -1.85,10 15.19,15.19 0 0 1 -5.29,6.65 14.08,14.08 0 0 1 -8.25,2.36 z m -1.83,-5.83 q 5.07,0 7.53,-3.6 2.46,-3.6 2.47,-9.57 v -0.75 a 26.4,26.4 0 0 0 -1.1,-8 11.71,11.71 0 0 0 -3.32,-5.4 8.2,8.2 0 0 0 -5.65,-2 9.48,9.48 0 0 0 -5.59,1.61 11.39,11.39 0 0 0 -3.62,4.3 v 17.46 a 11.22,11.22 0 0 0 3.65,4.35 9.63,9.63 0 0 0 5.63,1.6 z m 41.89,5.83 a 16.31,16.31 0 0 1 -15.53,-9.67 24,24 0 0 1 -2.14,-10.37 v -0.8 a 24,24 0 0 1 2.14,-10.38 17,17 0 0 1 6.1,-7.08 17,17 0 0 1 24.86999731,7.11 23.79,23.79 0 0 1 2.15999999,10.39 v 0.8 a 24,24 0 0 1 -2.15999999,10.4 16.15,16.15 0 0 1 -15.43999731,9.6 z m 0,-5.61 a 8.83,8.83 0 0 0 5.75,-1.87 11.64,11.64 0 0 0 3.5000003,-5.14 21.67,21.67 0 0 0 1.19,-7.42 v -0.8 a 21.63,21.63 0 0 0 -1.2,-7.46 11.36,11.36 0 0 0 -3.5300003,-5.14 9.81,9.81 0 0 0 -11.55,0 11.31,11.31 0 0 0 -3.5,5.14 22.15,22.15 0 0 0 -1.15,7.42 v 0.8 a 22.19,22.19 0 0 0 1.15,7.42 11.43,11.43 0 0 0 3.52,5.14 9,9 0 0 0 5.82,1.91 z m 42.249997,5.61 a 16.31,16.31 0 0 1 -15.53,-9.67 24,24 0 0 1 -2.1399997,-10.37 v -0.8 a 24,24 0 0 1 2.1399997,-10.38 17,17 0 0 1 6.1,-7.08 17,17 0 0 1 24.87,7.11 23.79,23.79 0 0 1 2.16,10.39 v 0.8 a 24,24 0 0 1 -2.16,10.4 16.15,16.15 0 0 1 -15.45,9.64 z m 0,-5.61 a 8.83,8.83 0 0 0 5.75,-1.87 11.64,11.64 0 0 0 3.5,-5.14 21.67,21.67 0 0 0 1.19,-7.42 v -0.8 a 21.63,21.63 0 0 0 -1.2,-7.46 11.36,11.36 0 0 0 -3.49,-5.1 9.81,9.81 0 0 0 -11.55,0 11.31,11.31 0 0 0 -3.5,5.14 22.15,22.15 0 0 0 -1.15,7.42 v 0.8 a 22.19,22.19 0 0 0 1.15,7.42 11.43,11.43 0 0 0 3.52,5.14 9,9 0 0 0 5.77,1.87 z m 22.06,4.85 v -4.6 l 5.95,-1 v -45.62 l -5.95,-1 v -4.64 h 13.12 v 51.25 l 5.94,1 v 4.6 z m 25.34,0 v -4.6 l 4,-0.47 -0.11,-0.15 -11.41,-14.72 3.71,-5.72 15.94,20.19 5.69,0.87 v 4.6 z m -12.73,-11.41 -2.67,-5.66 17.14,-17.06 0.17,-0.22 -4.22,-0.47 v -4.62 h 17 v 4.62 l -5.06,1 z"
           id="path1" /><path
           class="cls-2"
           d="m -82.19938,-59.67312 q -10.41,-2.94 -14.82,-9.35 a 26.7,26.7 0 0 1 -4.4,-15.48 v -10.94 q 0,-6 -2.74,-9.31 -2.74,-3.31 -8.37,-3.34 v -7.85 q 5.66,0 8.37,-3.28 2.71,-3.28 2.74,-9.33 v -11 a 26.67,26.67 0 0 1 4.42,-15.5 q 4.39,-6.38 14.8,-9.31 l 2.12,6.25 a 13.4,13.4 0 0 0 -8.34,6.7 25.71,25.71 0 0 0 -2.49,11.88 v 11 a 20.94,20.94 0 0 1 -2.25,9.89 15.59,15.59 0 0 1 -6.76,6.66 16,16 0 0 1 6.76,6.77 20.78,20.78 0 0 1 2.25,9.79 v 10.92 a 25.3,25.3 0 0 0 2.49,11.81 13.71,13.71 0 0 0 8.34,6.71 z"
           id="path2" /><path
           class="cls-2"
           d="m 92.260617,-59.69312 -2.14,-6.31 a 13.72,13.72 0 0 0 8.26,-6.7 25.07,25.07 0 0 0 2.520003,-11.81 v -10.94 a 20.07,20.07 0 0 1 2.4,-10 15.7,15.7 0 0 1 7.43,-6.57 15.15,15.15 0 0 1 -7.43,-6.46 20.25,20.25 0 0 1 -2.4,-10.09 v -11 a 25.44,25.44 0 0 0 -2.520003,-11.87 13.45,13.45 0 0 0 -8.26,-6.7 l 2.14,-6.22 q 10.350003,2.92 14.740003,9.3 a 26.66,26.66 0 0 1 4.4,15.51 v 11 q 0,6 2.72,9.33 c 1.83,2.18 4.64,3.28 8.44,3.28 v 7.84 q -5.7,0 -8.44,3.35 -2.74,3.35 -2.72,9.31 v 10.93 a 26.7,26.7 0 0 1 -4.4,15.48 q -4.38,6.4 -14.740003,9.34 z"
           id="path3" /><path
           class="cls-1"
           d="m -88.739003,-219.51504 v 41.67 c 0,3.36 -0.65,5.9 -2,7.61 -1.35,1.71 -3.28,2.56 -6.09,2.56 -0.519997,0 -0.999997,0 -1.559997,0 l -1.63,-0.14 v -3.8 h 0.94 0.92 c 1.999997,0 3.289997,-0.4 3.889997,-1.31 a 7,7 0 0 0 0.91,-3.9 v -42.69 z m 13.43,0 v 24.67 a 11.82,11.82 0 0 0 2.29,7.56 c 1.43,1.87 4,2.81 7.77,2.81 a 9.73,9.73 0 0 0 8.38,-4.25 17.84,17.84 0 0 0 3.05,-10.64 v -20.15 h 4.6 v 37.84 h -4.25 v -6.8 h -0.14 a 13.73,13.73 0 0 1 -5.26,5.82 14.77,14.77 0 0 1 -7.81,2.09 q -6.81,0 -10,-3.61 -3.19,-3.61 -3.25,-10.47 v -24.87 z m 52.75,-1.08 q 7.94,0 12.46,5.56 4.5200004,5.56 4.5400004,14.45 0,8.85 -4.5500004,14.44 -4.55,5.59 -12.42,5.58 a 15.38,15.38 0 0 1 -8.16,-2.22 11.57,11.57 0 0 1 -5,-6.09 h -0.15 v 21.2 h -4.63 v -51.84 h 4.26 v 7.18 h 0.19 a 12.58,12.58 0 0 1 5.24,-6.08 15.8,15.8 0 0 1 8.22,-2.18 z m -13.3,20 q 0,7.19 3.45,11.67 3.45,4.48 9.85,4.47 a 10.53,10.53 0 0 0 9.07,-4.59 19.27,19.27 0 0 0 3.3,-11.52 19.26,19.26 0 0 0 -3.3,-11.53 10.63,10.63 0 0 0 -9.18,-4.61 q -6.41,0 -9.8,4.05 -3.39,4.05 -3.39,12.04 z m 38.1400005,-18.92 12.4599995,32.21 11.68,-32.21 h 4.61 l -16.29,43.25 a 19.6,19.6 0 0 1 -3.57,6.5 c -1.3,1.39 -3.4199996,2.09 -6.3799996,2.09 l -1.6399999,-0.08 a 6.87,6.87 0 0 1 -2.0000001,-0.28 v -3.91 h 0.06 a 5.64,5.64 0 0 0 1.2800001,0.25 12.83,12.83 0 0 0 1.7999999,0.14 5.4,5.4 0 0 0 4.3599996,-1.75 c 1,-1.16 2.27,-4 3.84,-8.51 l -15.1199996,-37.7 z m 40.6399995,-11.36 v 11.36 h 7.69 v 3.9 h -7.69 v 25.81 c 0,1.93 0.36,3.2 1.08,3.8 a 4.28,4.28 0 0 0 2.81,0.89 c 0.48,0 1,0 1.71,0 0.71,0 1.35,-0.1 2.09,-0.18 v 3.88 c -0.67,0 -1.34,0.09 -2,0.11 -0.66,0.02 -1.36,0 -2.06,0 q -4.62,0 -6.44,-1.75 c -1.19,-1.17 -1.79,-3.26 -1.79,-6.3 v -26.26 h -6.63 v -3.9 h 6.63 v -11.36 z m 28.49,10.28 a 14.74,14.74 0 0 1 12.17,5.59 q 4.49,5.58 4.49,14.89 v 0.75 h -29.09 a 16.8,16.8 0 0 0 3.53,10.75 11,11 0 0 0 8.92,4.14 11.79,11.79 0 0 0 7.55,-2.37 13.62,13.62 0 0 0 4.3,-7.28 h 4.7 q -1.62,6.83 -5.66,10.2 -4.04,3.37 -10.86,3.36 -8,0 -12.55,-5.36 -4.55,-5.36 -4.53,-14.66 0,-8.8 4.55,-14.4 4.55,-5.6 12.48,-5.61 z m 12,17.37 a 15,15 0 0 0 -3.53,-9.56 11.22,11.22 0 0 0 -16.83,-0.28 17.33,17.33 0 0 0 -4.07,9.84 z m 28.400003,-16.79 h 1.17 v 4.6 h -0.54 a 12.91,12.91 0 0 0 -9.84,3.92 13.65,13.65 0 0 0 -3.7,9.76 v 20 h -4.610003 v -37.78 H 98.551 v 8.87 h 0.14 a 14.74,14.74 0 0 1 5.21,-6.91 13.46,13.46 0 0 1 7.94,-2.46 z"
           id="path4" /></g><path
         style="fill:#9e00ff;fill-opacity:1;stroke:#9e00ff;stroke-width:2.38266;stroke-dasharray:none;stroke-opacity:1"
         d="m -131.45793,-344.281 c 0,328.323873 0,320.545789 0,320.545789"
         id="path5" /><text
         xml:space="preserve"
         id="text5"
         style="white-space:pre;shape-inside:url(#rect5);display:inline;fill:#ffffff;fill-opacity:1;stroke:#000000;stroke-width:2;stroke-dasharray:none"
         transform="translate(74.609158,-427.86264)"><tspan
           x="-171.80273"
           y="153.61664"
           id="tspan4"><tspan
             style="font-size:85.3333px;font-family:Tesla;-inkscape-font-specification:'Tesla, Normal';fill:#9e00ff;stroke:#9e00ff"
             id="tspan2">Doug's</tspan></tspan></text></g><rect
       style="fill:none;stroke:none;stroke-width:1.66201"
       id="rect1"
       width="362.33798"
       height="362.33798"
       x="0.831007"
       y="0.831007" /></g></svg>
