<?xml version="1.0" encoding="UTF-8" standalone="no"?>
<!-- Created with Inkscape (http://www.inkscape.org/) -->

<svg
   width="210mm"
   height="297mm"
   viewBox="0 0 210 297"
   version="1.1"
   id="svg1"
   xml:space="preserve"
   inkscape:version="1.3.2 (091e20ef0f, 2023-11-25)"
   sodipodi:docname="protonmail.svg"
   inkscape:export-filename="protonmail.png"
   inkscape:export-xdpi="200"
   inkscape:export-ydpi="200"
   xmlns:inkscape="http://www.inkscape.org/namespaces/inkscape"
   xmlns:sodipodi="http://sodipodi.sourceforge.net/DTD/sodipodi-0.dtd"
   xmlns="http://www.w3.org/2000/svg"
   xmlns:svg="http://www.w3.org/2000/svg"><sodipodi:namedview
     id="namedview1"
     pagecolor="#ffffff"
     bordercolor="#000000"
     borderopacity="0.25"
     inkscape:showpageshadow="2"
     inkscape:pageopacity="0.0"
     inkscape:pagecheckerboard="0"
     inkscape:deskcolor="#d1d1d1"
     inkscape:document-units="mm"
     inkscape:zoom="1.6820162"
     inkscape:cx="520.20901"
     inkscape:cy="537.74749"
     inkscape:window-width="3424"
     inkscape:window-height="1382"
     inkscape:window-x="0"
     inkscape:window-y="0"
     inkscape:window-maximized="1"
     inkscape:current-layer="layer1" /><defs
     id="defs1" /><g
     inkscape:label="Layer 1"
     inkscape:groupmode="layer"
     id="layer1"><path
       style="fill:#ad00ff;fill-opacity:1;stroke-width:1.32049"
       d="m 42.311395,225.28742 c -2.338379,-0.59481 -3.586688,-1.34296 -4.669444,-2.79859 l -0.948448,-1.27509 v -25.72979 c 0,-14.15138 0.07863,-25.72978 0.17459,-25.72978 0.09601,0 13.195117,6.59167 29.109116,14.64816 15.913984,8.05648 30.053297,15.0815 31.420709,15.61115 1.367393,0.52965 4.257592,1.38595 6.422652,1.9029 3.32735,0.79447 4.54558,0.9399 7.87292,0.9399 3.32734,0 4.54557,-0.14548 7.87293,-0.9399 2.16507,-0.51695 5.05524,-1.37324 6.42266,-1.90289 1.36739,-0.52965 15.50484,-7.55467 31.41649,-15.61115 15.91168,-8.05648 29.01079,-14.64817 29.1091,-14.64817 0.0983,0 0.17881,11.5784 0.17881,25.72978 v 25.72979 l -0.96446,1.29832 c -0.63344,0.85265 -1.65345,1.60165 -2.97159,2.18207 l -2.00707,0.88375 -68.40275,0.0626 c -57.984915,0.0531 -68.651498,-7.7e-4 -70.036215,-0.35297 z m 67.012755,-30.36428 c -6.78226,-1.27665 -19.615534,-7.21342 -49.219042,-22.7691 -16.465704,-8.65221 -19.796022,-10.70691 -22.539363,-13.90612 -0.856487,-0.99883 -0.869157,-1.26516 -0.870692,-18.30115 -0.0016,-18.64447 -0.03195,-18.33101 2.332647,-24.19052 6.518652,-16.153714 19.825793,-27.84335 39.30946,-34.531334 11.46919,-3.936914 21.235766,-5.566889 33.35633,-5.566889 12.11885,0 21.87922,1.624149 33.35637,5.550557 19.40896,6.639929 32.79505,18.404503 39.30945,34.547666 2.36444,5.85931 2.33417,5.54543 2.33417,24.20651 v 17.30354 l -1.18038,1.30966 c -2.71302,3.01011 -6.28206,5.19918 -21.60966,13.25418 -24.88646,13.07844 -36.53235,18.70975 -44.68306,21.60628 -4.80082,1.7061 -6.98638,2.03443 -9.89623,1.48672 z m 45.46326,-62.57764 v -9.12859 l -1.23302,-2.72843 c -3.90263,-8.63562 -11.84154,-15.07238 -23.37086,-18.9488 -7.67173,-2.579407 -15.82224,-3.728087 -22.1817,-3.126123 -10.71411,1.014126 -21.021821,4.608943 -27.892833,9.727663 -5.00047,3.72521 -7.965932,7.28874 -10.422519,12.52455 -1.080659,2.30323 -1.086892,2.36965 -1.086892,11.56244 v 9.24588 h 43.093904 43.09392 z"
       id="path1"
       inkscape:export-filename="protonmail.png"
       inkscape:export-xdpi="200"
       inkscape:export-ydpi="200" /></g></svg>
